# xmcd
#
# Track frame offsets:
#	150
#	13668
#	27844
#	51556
#	75960
#	94268
#	104216
#	124092
#	145083
#	158049
#	178428
#	197674
#	212657
#	224946
#
# Disc length: 3293 seconds
# Revision: 0
# Processed by: cddbd v1.5.2PL0 Copyright (c) Steve Scherf et al.
# Submitted via: dBpowerAMP V12.0
#
DISCID=d30cdb0e
DTITLE=Laurie Lewis - Skippin' and Flyin'
DYEAR=2011
DGENRE=Country
TTITLE0=Old Ten Broeck
TTITLE1=What's Good For You (Should Be Alright For Me)
TTITLE2=The Pharoah's Daughter
TTITLE3=Hartfordtown 1944
TTITLE4=Tuck Away My Lonesome Blues
TTITLE5=I Don't Care Anymore
TTITLE6=A Lonesome Road
TTITLE7=Dreams
TTITLE8=American Chestnuts
TTITLE9=Carter's Blues
TTITLE10=Fair Beauty Bright
TTITLE11=Blue Moon of Kentucky
TTITLE12=I Ain't Gonna Work Tomorrow
TTITLE13=Going Away
EXTD=
EXTT0=
EXTT1=
EXTT2=
EXTT3=
EXTT4=
EXTT5=
EXTT6=
EXTT7=
EXTT8=
EXTT9=
EXTT10=
EXTT11=
EXTT12=
EXTT13=
PLAYORDER=
